Indiana Jones 4 Crystal Skull (2008)       

Verenigde Staten
Actie / Avontuur
122 minuten

geregisseerd door Steven Spielberg
met Harrison Ford, Cate Blanchett en Shia LaBeouf

1957. De Koude Oorlog is op zijn hoogtepunt. Nadat hij op een afgelegen vliegveld ternauwernood ontsnapt aan een groep snode Sovjet agenten, ontmoet de avontuurlijke archeoloog Indiana Jones (Harrison Ford) de jonge, opstandige Mutt (Shia LaBeouf) die zijn hulp nodig heeft bij een persoonlijke missie. In ruil daarvoor maakt Indy grote kans op het vinden van de Crystal Skull van Akator, een legendarisch en fascinerend voorwerp omringd door bijgeloof en gevaar. Indy en Mutt reizen naar de uithoeken van Peru, maar merken al snel dat zij niet de enigen zijn die de Crystal Skull zoeken.


English

Storyline
During the Cold War, Soviet agents watch Professor Henry Jones when a young man brings him a coded message from an aged, demented colleague, Henry Oxley. Led by the brilliant Irina Spalko, the Soviets tail Jones and the young man, Mutt, to Peru. With Oxley's code, they find a legendary skull made of a single piece of quartz. If Jones can deliver the skull to its rightful place, all may be well; but if Irina takes it to its origin, she'll gain powers that could endanger the West. Aging professor and young buck join forces with a woman from Jones's past to face the dangers of the jungle, Russia, and the supernatural. Written by



Spotinformatie 
Categorie : Beeld 
Formaat ..: DivX 
Bron .....: Retail
Audio ....: English 
Subs .... : Nederlands (SRT) (instelbaar)
Thanks... : cjdijk

Format                           : AVI
Format/Info                      : Audio Video Interleave
File size                        : 700 MiB
Duration                         : 1h 8mn
Overall bit rate                 : 1 420 Kbps
Writing application              : VirtualDubMod 1.5.4.1 (build 2178/release)
Writing library                  : VirtualDubMod build 2178/release

Video
ID                               : 0
Format                           : MPEG-4 Visual
Format profile                   : Streaming Video@L1
Format settings, BVOP            : Yes
Format settings, QPel            : No
Format settings, GMC             : No warppoints
Format settings, Matrix          : Custom
Codec ID                         : XVID
Codec ID/Hint                    : XviD
Duration                         : 1h 8mn
Bit rate                         : 965 Kbps
Width                            : 720 pixels
Height                           : 304 pixels
Display aspect ratio             : 2.35
Frame rate                       : 25.000 fps
Resolution                       : 24 bits
Colorimetry                      : 4:2:0
Scan type                        : Progressive
Bits/(Pixel*Frame)               : 0.176
Stream size                      : 476 MiB (68%)
Writing library                  : XviD 1.0.0 (UTC 2004-05-09)

Audio
ID                               : 1
Format                           : AC-3
Format/Info                      : Audio Coding 3
Codec ID                         : 2000
Duration                         : 1h 8mn
Bit rate mode                    : Constant
Bit rate                         : 448 Kbps
Channel(s)                       : 6 channels
Channel positions                : Front: L C R, Surround: L R, LFE
Sampling rate                    : 48.0 KHz
Stream size                      : 221 MiB (32%)
Alignment                        : Split accross interleaves
Interleave, duration             : 96 ms (2.40 video frames)
Interleave, preload duration     : 96 ms
Language                         : English / English

  
  
Genre : Actie
Avontuur


Weblink :  http://www.moviemeter.nl/film/44611 
Weblink :  http://www.imdb.com/title/tt0367882

*****************************************

Brought to you by 
2Lions Team

meer zien??
Kom dan eens kijken op ons Forum 
                   
http://www.2lions-site.nl  

2Lions the site to be for all your Dutch MOVIES and more

******************************************


DON T HIT AND RUN Niet gelijk afhaken als de FILM binnen is blijf seeden. 

Don`t quit after you finished the download, but keep seeding


There are fake torrents from uploaders who use our team name.
Those are not ours, or members from our team.
We 2Lions-Team are not responsible for the fake posts on our name

Wij 2Lions-Team zijn niet verantwoordelijk voor die zieke FAKE posten die op onze naam worden gedaan

Please check our site !!!
To the fakers Get a Live
 
 
 


 
 
 
